<!DOCTYPE svg PUBLIC "-//W3C//DTD SVG 1.1//EN" "http://www.w3.org/Graphics/SVG/1.1/DTD/svg11.dtd">
<!-- Uploaded to: SVG Repo, www.svgrepo.com, Transformed by: SVG Repo Mixer Tools -->
<svg fill="#4f778b" height="86px" width="86px" version="1.1" id="Layer_1" xmlns="http://www.w3.org/2000/svg" xmlns:xlink="http://www.w3.org/1999/xlink" viewBox="0 0 512 512" xml:space="preserve" stroke="#4f778b">

<g id="SVGRepo_bgCarrier" stroke-width="0"/>

<g id="SVGRepo_tracerCarrier" stroke-linecap="round" stroke-linejoin="round"/>

<g id="SVGRepo_iconCarrier"> <g> <g> <path d="M512,281.6c0-39.612-50.193-62.874-112.751-72.124c20.975-9.463,35.951-23.125,35.951-43.076 c0-38.596-55.62-53.948-103.475-60.032C348.425,95.377,358.4,80.939,358.4,64c0-37.683-47.369-64-115.2-64S128,26.317,128,64 c0,20.915,14.967,38.101,39.561,49.459c-34.978,8.806-65.161,24.542-65.161,52.941c0,37.845,53.495,53.35,100.676,59.682 C173.235,238.635,153.6,256.905,153.6,281.6c0,22.571,16.384,39.782,41.967,52.173C110.566,338.398,0,360.602,0,422.4 C0,493.124,144.828,512,230.4,512s230.4-18.876,230.4-89.6c0-32.247-30.234-53.632-71.108-67.447 C456.593,346.718,512,323.209,512,281.6z M153.6,64c0-21.205,40.115-38.4,89.6-38.4s89.6,17.195,89.6,38.4s-40.115,38.4-89.6,38.4 S153.6,85.205,153.6,64z M128,166.4c0-21.205,63.036-38.4,140.8-38.4s140.8,17.195,140.8,38.4c0,21.205-63.036,38.4-140.8,38.4 S128,187.605,128,166.4z M435.2,422.4c0,35.345-91.691,64-204.8,64s-204.8-28.655-204.8-64s91.691-64,204.8-64 S435.2,387.055,435.2,422.4z M332.8,332.8c-84.83,0-153.6-22.921-153.6-51.2c0-28.279,68.77-51.2,153.6-51.2 s153.6,22.921,153.6,51.2C486.4,309.879,417.63,332.8,332.8,332.8z"/> </g> </g> </g>

</svg>